<svg xmlns="http://www.w3.org/2000/svg" viewBox="0 0 1600 900" role="img" aria-labelledby="title description">
<title id="title">Case 001 night street evidence</title><desc id="description">Original fictional night scene with a red sports car outside a warehouse.</desc>
<defs><linearGradient id="sky" x1="0" y1="0" x2="1" y2="1"><stop stop-color="#100a2e"/><stop offset=".55" stop-color="#382554"/><stop offset="1" stop-color="#071620"/></linearGradient><linearGradient id="road" x1="0" y1="0" x2="0" y2="1"><stop stop-color="#17202a"/><stop offset="1" stop-color="#05080d"/></linearGradient></defs>
<rect width="1600" height="900" fill="url(#sky)"/><rect y="440" width="1600" height="460" fill="url(#road)"/><path d="M0 610 1600 510v390H0Z" fill="#111722"/><path d="M0 760 1600 600" stroke="#f47b8d" stroke-width="7" opacity=".55"/><path d="M0 830 1600 675" stroke="#00d9e6" stroke-width="5" opacity=".42"/>
<rect x="70" y="205" width="660" height="350" rx="8" fill="#161525" stroke="#ff5c9a" stroke-width="5"/><rect x="116" y="252" width="245" height="303" fill="#0c1017"/><rect x="404" y="252" width="255" height="303" fill="#0c1017"/><text x="110" y="185" fill="#ff7ab2" font-family="Arial,sans-serif" font-weight="700" font-size="38" letter-spacing="10">ORCHID WAREHOUSE</text><text x="1130" y="530" fill="#00e1e8" font-family="Arial,sans-serif" font-weight="700" font-size="28" letter-spacing="5">VICE BEACH</text>
<g transform="translate(550 510)"><path d="M55 155 130 68 520 40l170 90 36 94H22Z" fill="#d82c55" stroke="#ff8ca5" stroke-width="8"/><path d="m174 76 93-62h230l127 82Z" fill="#19273a" stroke="#87f8ff" stroke-width="6"/><path d="M85 159h596" stroke="#ffe2e8" stroke-width="9" opacity=".85"/><circle cx="180" cy="220" r="70" fill="#05070b" stroke="#b7d3dc" stroke-width="13"/><circle cx="180" cy="220" r="27" fill="#ff5f88"/><circle cx="570" cy="220" r="70" fill="#05070b" stroke="#b7d3dc" stroke-width="13"/><circle cx="570" cy="220" r="27" fill="#ff5f88"/><rect x="375" y="145" width="122" height="46" rx="5" fill="#f9dea0"/><text x="389" y="177" fill="#201611" font-family="Arial,sans-serif" font-size="21" font-weight="700">VC-091</text></g>
<g transform="translate(1180 420)"><rect width="142" height="250" rx="8" fill="#11151c" stroke="#00d9e6" stroke-width="5"/><rect x="27" y="26" width="88" height="156" fill="#25313b"/><circle cx="71" cy="213" r="15" fill="#ff5c9a"/></g><text x="80" y="842" fill="#fff" font-family="monospace" font-size="24" opacity=".72">SOURCE: TRAFFIC CAMERA 04 | 02:17:31 | UNVERIFIED</text>
</svg>
